# xmcd
#
# Track frame offsets: 
#        182
#        17375
#        53230
#        94847
#        138912
#
# Disc length: 2172 seconds
#
# Revision: 0
# Processed by: cddbd v1.5.2PL0 Copyright (c) Steve Scherf et al.
# Submitted via: ExactAudioCopy v0.99pb4
#
DISCID=35087a05
DTITLE=Joi Cardwell - Jump for Joi
DYEAR=1995
DGENRE=House
TTITLE0=Jump for Joi (Radio Edit)
TTITLE1=Jump for Joi (Classic Vocal)
TTITLE2=Jump for Joi (Spike Dub)
TTITLE3=Jump for Joi (Spike Vocal)
TTITLE4=Jump for Joi (Classic Dub)
EXTD=
EXTT0=
EXTT1=
EXTT2=
EXTT3=
EXTT4=
PLAYORDER=
